<svg width="12" height="12" viewBox="0 0 12 12" fill="none" xmlns="http://www.w3.org/2000/svg">
<g clip-path="url(#clip0_245_55)">
<path d="M8.58499 12C8.51919 12.0004 8.45396 11.9878 8.39304 11.9629C8.33212 11.938 8.27671 11.9013 8.22999 11.855L4.14499 7.77C3.91218 7.53777 3.72746 7.26189 3.60143 6.95817C3.4754 6.65444 3.41052 6.32884 3.41052 6C3.41052 5.67116 3.4754 5.34556 3.60143 5.04183C3.72746 4.73811 3.91218 4.46223 4.14499 4.23L8.22999 0.145001C8.27661 0.0983819 8.33196 0.0614015 8.39287 0.0361713C8.45378 0.0109411 8.51906 -0.00204468 8.58499 -0.00204468C8.65092 -0.00204468 8.7162 0.0109411 8.77712 0.0361713C8.83803 0.0614014 8.89337 0.0983819 8.93999 0.145001C8.98661 0.19162 9.02359 0.246966 9.04882 0.307877C9.07405 0.368788 9.08704 0.434072 9.08704 0.500001C9.08704 0.565931 9.07405 0.631215 9.04882 0.692126C9.02359 0.753037 8.98661 0.808382 8.93999 0.855001L4.85499 4.94C4.57409 5.22125 4.41631 5.6025 4.41631 6C4.41631 6.3975 4.57409 6.77875 4.85499 7.06L8.93999 11.145C8.98686 11.1915 9.02405 11.2468 9.04944 11.3077C9.07482 11.3686 9.08789 11.434 9.08789 11.5C9.08789 11.566 9.07482 11.6314 9.04944 11.6923C9.02405 11.7532 8.98686 11.8085 8.93999 11.855C8.89327 11.9013 8.83786 11.938 8.77695 11.9629C8.71603 11.9878 8.65079 12.0004 8.58499 12Z" fill="black"/>
</g>
<defs>
<clipPath id="clip0_245_55">
<rect width="12" height="12" fill="white"/>
</clipPath>
</defs>
</svg>
