<svg width="12" height="12" viewBox="0 0 12 12" fill="none" xmlns="http://www.w3.org/2000/svg">
<g clip-path="url(#clip0_17_37)">
<path d="M11.8538 0.146752C11.76 0.0530163 11.6328 0.000358582 11.5003 0.000358582C11.3677 0.000358582 11.2405 0.0530163 11.1468 0.146752L6.00025 5.29325L0.853752 0.146752C0.759988 0.0530163 0.632834 0.000358582 0.500252 0.000358582C0.36767 0.000358582 0.240516 0.0530163 0.146752 0.146752C0.0530163 0.240516 0.000358582 0.36767 0.000358582 0.500252C0.000358582 0.632834 0.0530163 0.759988 0.146752 0.853752L5.29325 6.00025L0.146752 11.1468C0.0530163 11.2405 0.000358582 11.3677 0.000358582 11.5003C0.000358582 11.6328 0.0530163 11.76 0.146752 11.8538C0.240516 11.9475 0.36767 12.0001 0.500252 12.0001C0.632834 12.0001 0.759988 11.9475 0.853752 11.8538L6.00025 6.70725L11.1468 11.8538C11.2405 11.9475 11.3677 12.0001 11.5003 12.0001C11.6328 12.0001 11.76 11.9475 11.8538 11.8538C11.9475 11.76 12.0001 11.6328 12.0001 11.5003C12.0001 11.3677 11.9475 11.2405 11.8538 11.1468L6.70725 6.00025L11.8538 0.853752C11.9475 0.759988 12.0001 0.632834 12.0001 0.500252C12.0001 0.36767 11.9475 0.240516 11.8538 0.146752Z" fill="#374957"/>
</g>
<defs>
<clipPath id="clip0_17_37">
<rect width="12" height="12" fill="white"/>
</clipPath>
</defs>
</svg>
