<svg width="12" height="12" viewBox="0 0 12 12" fill="none" xmlns="http://www.w3.org/2000/svg">
<g clip-path="url(#clip0_102_73)">
<path d="M11.4145 4.586L9.47501 2.64651C9.38071 2.55543 9.25441 2.50503 9.12331 2.50617C8.99221 2.50731 8.8668 2.55989 8.7741 2.6526C8.6814 2.7453 8.62881 2.87071 8.62767 3.0018C8.62653 3.1329 8.67693 3.2592 8.76801 3.35351L10.7075 5.29301C10.7651 5.35177 10.8155 5.41724 10.8575 5.488C10.85 5.488 10.844 5.48401 10.8365 5.48401L2.99451 5.50001C2.8619 5.50001 2.73472 5.55268 2.64095 5.64645C2.54719 5.74022 2.49451 5.8674 2.49451 6.00001C2.49451 6.13261 2.54719 6.25979 2.64095 6.35356C2.73472 6.44733 2.8619 6.50001 2.99451 6.50001L10.8335 6.48401C10.8475 6.48401 10.859 6.477 10.8725 6.476C10.8282 6.56058 10.7719 6.63837 10.7055 6.707L8.76601 8.6465C8.71825 8.69263 8.68016 8.7478 8.65396 8.8088C8.62775 8.8698 8.61396 8.93541 8.61338 9.0018C8.61281 9.06819 8.62546 9.13403 8.6506 9.19548C8.67574 9.25693 8.71287 9.31276 8.75981 9.3597C8.80676 9.40665 8.86258 9.44378 8.92403 9.46892C8.98548 9.49406 9.05132 9.50671 9.11771 9.50613C9.1841 9.50555 9.24971 9.49176 9.31071 9.46556C9.37171 9.43935 9.42689 9.40126 9.47301 9.35351L11.4125 7.414C11.7875 7.03895 11.9981 6.53033 11.9981 6.00001C11.9981 5.46968 11.7875 4.96106 11.4125 4.586H11.4145Z" fill="black"/>
<path d="M3.5 11H2.5C2.10218 11 1.72064 10.842 1.43934 10.5607C1.15804 10.2794 1 9.89782 1 9.5V2.5C1 2.10218 1.15804 1.72064 1.43934 1.43934C1.72064 1.15804 2.10218 1 2.5 1H3.5C3.63261 1 3.75979 0.947322 3.85355 0.853553C3.94732 0.759785 4 0.632608 4 0.5C4 0.367392 3.94732 0.240215 3.85355 0.146447C3.75979 0.0526784 3.63261 0 3.5 0L2.5 0C1.8372 0.000793929 1.20178 0.264441 0.73311 0.73311C0.264441 1.20178 0.000793929 1.8372 0 2.5L0 9.5C0.000793929 10.1628 0.264441 10.7982 0.73311 11.2669C1.20178 11.7356 1.8372 11.9992 2.5 12H3.5C3.63261 12 3.75979 11.9473 3.85355 11.8536C3.94732 11.7598 4 11.6326 4 11.5C4 11.3674 3.94732 11.2402 3.85355 11.1464C3.75979 11.0527 3.63261 11 3.5 11Z" fill="black"/>
</g>
<defs>
<clipPath id="clip0_102_73">
<rect width="12" height="12" fill="white"/>
</clipPath>
</defs>
</svg>
