<svg width="12" height="12" viewBox="0 0 12 12" fill="none" xmlns="http://www.w3.org/2000/svg">
<g clip-path="url(#clip0_17_32)">
<path d="M11.4266 0.574002C11.0867 0.2346 10.6259 0.0439701 10.1456 0.0439701C9.66522 0.0439701 9.2045 0.2346 8.86458 0.574002L0.732576 8.706C0.499702 8.93757 0.315057 9.21301 0.189325 9.5164C0.0635932 9.81979 -0.000730324 10.1451 7.61552e-05 10.4735V11.5C7.61552e-05 11.6326 0.0527546 11.7598 0.146523 11.8536C0.240291 11.9473 0.367468 12 0.500076 12H1.52658C1.85496 12.0009 2.18026 11.9367 2.48365 11.8111C2.78705 11.6854 3.0625 11.5008 3.29408 11.268L11.4266 3.1355C11.7658 2.7956 11.9564 2.33498 11.9564 1.85475C11.9564 1.37452 11.7658 0.913904 11.4266 0.574002ZM2.58708 10.561C2.30508 10.8411 1.92406 10.9989 1.52658 11H1.00008V10.4735C0.99957 10.2765 1.03815 10.0813 1.11359 9.89923C1.18904 9.71719 1.29983 9.55193 1.43958 9.413L7.61108 3.2415L8.76108 4.3915L2.58708 10.561ZM10.7191 2.4285L9.46608 3.682L8.31608 2.5345L9.56958 1.281C9.64509 1.20566 9.7347 1.14592 9.83329 1.10521C9.93189 1.06449 10.0375 1.0436 10.1442 1.04371C10.2509 1.04383 10.3565 1.06495 10.455 1.10588C10.5535 1.14681 10.643 1.20674 10.7183 1.28225C10.7937 1.35776 10.8534 1.44737 10.8941 1.54597C10.9348 1.64456 10.9557 1.75021 10.9556 1.85689C10.9555 1.96356 10.9344 2.06916 10.8934 2.16767C10.8525 2.26617 10.7926 2.35566 10.7171 2.431L10.7191 2.4285Z" fill="#374957"/>
</g>
<defs>
<clipPath id="clip0_17_32">
<rect width="12" height="12" fill="white"/>
</clipPath>
</defs>
</svg>
