<svg width="12" height="12" viewBox="0 0 12 12" fill="none" xmlns="http://www.w3.org/2000/svg">
<g clip-path="url(#clip0_102_118)">
<path d="M8 8C8 8.1326 7.94732 8.25978 7.85355 8.35355C7.75979 8.44732 7.63261 8.5 7.5 8.5H6.5V9.5C6.5 9.6326 6.44732 9.75978 6.35355 9.85355C6.25979 9.94732 6.13261 10 6 10C5.86739 10 5.74021 9.94732 5.64645 9.85355C5.55268 9.75978 5.5 9.6326 5.5 9.5V8.5H4.5C4.36739 8.5 4.24021 8.44732 4.14645 8.35355C4.05268 8.25978 4 8.1326 4 8C4 7.86739 4.05268 7.74021 4.14645 7.64644C4.24021 7.55267 4.36739 7.5 4.5 7.5H5.5V6.5C5.5 6.36739 5.55268 6.24021 5.64645 6.14644C5.74021 6.05267 5.86739 6 6 6C6.13261 6 6.25979 6.05267 6.35355 6.14644C6.44732 6.24021 6.5 6.36739 6.5 6.5V7.5H7.5C7.63261 7.5 7.75979 7.55267 7.85355 7.64644C7.94732 7.74021 8 7.86739 8 8ZM11 5.2425V9.5C10.9992 10.1628 10.7356 10.7982 10.2669 11.2669C9.79822 11.7356 9.1628 11.9992 8.5 12H3.5C2.8372 11.9992 2.20178 11.7356 1.73311 11.2669C1.26444 10.7982 1.00079 10.1628 1 9.5V2.5C1.00079 1.8372 1.26444 1.20178 1.73311 0.733106C2.20178 0.264437 2.8372 0.000790194 3.5 -3.73445e-06H5.7575C6.21731 -0.0011872 6.67279 0.0887901 7.09761 0.264726C7.52243 0.440662 7.90816 0.699065 8.2325 1.025L9.9745 2.768C10.3006 3.09212 10.5592 3.47772 10.7352 3.90248C10.9112 4.32724 11.0012 4.78271 11 5.2425ZM7.5255 1.732C7.36814 1.57958 7.19147 1.44846 7 1.342V3.5C7 3.6326 7.05268 3.75978 7.14645 3.85355C7.24021 3.94732 7.36739 4 7.5 4H9.658C9.55148 3.80859 9.42018 3.63207 9.2675 3.475L7.5255 1.732ZM10 5.2425C10 5.16 9.984 5.081 9.9765 5H7.5C7.10218 5 6.72064 4.84196 6.43934 4.56066C6.15804 4.27935 6 3.89782 6 3.5V1.0235C5.919 1.016 5.8395 0.999996 5.7575 0.999996H3.5C3.10218 0.999996 2.72064 1.15803 2.43934 1.43934C2.15804 1.72064 2 2.10217 2 2.5V9.5C2 9.89782 2.15804 10.2794 2.43934 10.5607C2.72064 10.842 3.10218 11 3.5 11H8.5C8.89782 11 9.27936 10.842 9.56066 10.5607C9.84196 10.2794 10 9.89782 10 9.5V5.2425Z" fill="black"/>
</g>
<defs>
<clipPath id="clip0_102_118">
<rect width="12" height="12" fill="white"/>
</clipPath>
</defs>
</svg>
